<svg width="105" height="75" viewBox="0 0 105 75" fill="none" xmlns="http://www.w3.org/2000/svg">
<rect x="44.3984" y="2.50391" width="11.7207" height="9.37653" rx="2.34413" fill="#A03C7D"/>
<rect x="67.832" y="8.93994" width="5.26259" height="7.01679" rx="0.877099" transform="rotate(30 67.832 8.93994)" fill="#A03C7D"/>
<path d="M66.497 7.95197C66.7392 7.53246 67.2756 7.38873 67.6951 7.63093L73.7089 11.103C74.1284 11.3452 74.2722 11.8816 74.03 12.3011L72.4258 15.0796L64.8928 10.7305L66.497 7.95197Z" fill="#A03C7D"/>
<rect width="5.26259" height="7.01679" rx="0.877099" transform="matrix(-0.866025 0.5 0.5 0.866025 31.1094 9.21924)" fill="#A03C7D"/>
<path d="M32.4454 7.95197C32.2032 7.53246 31.6668 7.38873 31.2472 7.63093L25.2335 11.103C24.814 11.3452 24.6702 11.8816 24.9124 12.3011L26.5166 15.0796L34.0496 10.7305L32.4454 7.95197Z" fill="#A03C7D"/>
<circle cx="50.2318" cy="42.2318" r="32.2318" fill="#FFBA4A"/>
<circle cx="50.2318" cy="42.2318" r="29.1051" stroke="#EB5555" stroke-opacity="0.3" stroke-width="6.25352"/>
<path fill-rule="evenodd" clip-rule="evenodd" d="M91.9999 0C92 7.17968 97.8202 13 105 13V0H105V26H105V13.0003C97.8203 13.0003 92.0001 18.8204 91.9999 26H91.9993C91.9991 18.8207 86.1793 13.0007 79 13.0003V13C86.1794 12.9996 91.9993 7.17948 91.9993 0H91.9999Z" fill="#EB5555"/>
<path fill-rule="evenodd" clip-rule="evenodd" d="M0 57.5892V57.5901C3.88168 57.5903 7.02856 60.7362 7.03033 64.6175C7.03209 60.736 10.1791 57.5901 14.061 57.5901V64.6199H14.0613V50.5586H7.03014C7.03014 54.4413 3.88268 57.589 0 57.5892ZM7.03032 50.559H14.061V57.5896C10.1781 57.5896 7.03032 54.4419 7.03032 50.559Z" fill="#EB5555"/>
<path d="M32.6777 42.3543H53.1889C53.1889 42.3543 61.364 28.6017 67.3143 18.7607" stroke="#A03C7D" stroke-width="6.25352"/>
</svg>
