<svg width="73" height="75" viewBox="0 0 73 75" fill="none" xmlns="http://www.w3.org/2000/svg">
<path fill-rule="evenodd" clip-rule="evenodd" d="M61.9566 0H61.9565V5.43505C64.9573 5.43505 67.39 7.867 67.3913 10.8675C67.3926 7.867 69.8254 5.43505 72.8261 5.43505C69.8285 5.43505 67.3977 3.0082 67.3913 0.0120896C67.3848 3.00808 64.9541 5.43478 61.9566 5.43478V0ZM67.3914 0V0.00026537H72.8261L72.8261 0H67.3914Z" fill="#EB5555"/>
<path fill-rule="evenodd" clip-rule="evenodd" d="M10.326 29.3478V29.3477H0V39.674C5.70256 39.6743 10.3253 44.2972 10.3255 49.9998H10.326C10.3261 44.297 14.9492 39.674 20.6521 39.674V49.9998H20.6522V29.3477H20.6521V39.6737C14.9676 39.6737 10.3558 35.0804 10.3261 29.4028C10.2965 35.0804 5.68476 39.6738 0.000190046 39.6738V29.3478H10.326Z" fill="#EB5555"/>
<path d="M2.17383 17.4346C2.17383 10.8072 7.54641 5.43457 14.1738 5.43457H52.1304C58.7578 5.43457 64.1303 10.8072 64.1303 17.4346V26.0867H2.17383V17.4346Z" fill="#FFBA4A"/>
<path d="M28.2607 17.4346C28.2607 10.8071 33.6333 5.43457 40.2607 5.43457H52.1303C58.7577 5.43457 64.1303 10.8072 64.1303 17.4346V64.1302H28.2607V17.4346Z" fill="#FFBA4A"/>
<path d="M2.17383 17.4346C2.17383 10.8072 7.54641 5.43457 14.1738 5.43457H16.2608C22.8882 5.43457 28.2608 10.8072 28.2608 17.4346V26.0867H2.17383V17.4346Z" fill="#C99035"/>
<rect x="36.9565" y="20.6523" width="33.6957" height="4.8913" fill="#993280"/>
<rect x="36.9565" y="30.4346" width="33.6957" height="4.8913" fill="#A03C7D"/>
<rect x="37" y="40" width="22.8261" height="4.8913" fill="#A03C7D"/>
<path d="M39.1304 74.9999V64.1304H47.826V74.9999L43.4782 70.6521L39.1304 74.9999Z" fill="#993280"/>
<circle cx="43.4783" cy="59.7825" r="6.52174" fill="#EB5555"/>
</svg>
