<svg width="91" height="75" viewBox="0 0 91 75" fill="none" xmlns="http://www.w3.org/2000/svg">
<path d="M11.6377 54.0864C11.6377 46.3544 17.9057 40.0864 25.6377 40.0864H70.0515C77.7835 40.0864 84.0515 46.3544 84.0515 54.0864V75.0002H11.6377V54.0864Z" fill="#FFBA4A"/>
<path fill-rule="evenodd" clip-rule="evenodd" d="M90.5197 29.7412H78.8794V41.3815H78.8796V35.5616C82.0863 35.5616 84.6872 38.1549 84.6997 41.3586C84.7121 38.1549 87.3131 35.5616 90.5197 35.5616V35.5616C87.3054 35.5615 84.6996 32.9558 84.6996 29.7414H90.5197V29.7412ZM84.6996 29.7414C84.6996 32.9557 82.0938 35.5614 78.8795 35.5614V29.7413H84.6996L84.6996 29.7414Z" fill="#EB5555"/>
<path fill-rule="evenodd" clip-rule="evenodd" d="M12.2859 11.6377C12.2859 18.4234 17.7868 23.9242 24.5725 23.9242V11.6377H24.5732V36.2109H24.5725V23.9245C17.7869 23.9245 12.286 29.4253 12.2859 36.2109H12.2857C12.2855 29.4256 6.78519 23.925 0 23.9245V23.9243C6.78535 23.9239 12.2858 18.4232 12.2858 11.6378H0V11.6377H12.2859Z" fill="#EB5555"/>
<circle cx="48.4916" cy="17.4569" r="17.4569" fill="#FFBA4A"/>
<rect x="27.1553" y="62.0688" width="41.3793" height="12.931" fill="#A03C7D"/>
<rect x="62.0688" y="40.0864" width="6.46552" height="34.9138" fill="#A03C7D"/>
<rect x="27.1553" y="40.0864" width="6.46552" height="34.9138" fill="#A03C7D"/>
</svg>
