<svg width="112" height="75" viewBox="0 0 112 75" fill="none" xmlns="http://www.w3.org/2000/svg">
<path d="M22.9839 37.5H89.5161V61C89.5161 68.732 83.2481 75 75.5161 75H36.9839C29.2519 75 22.9839 68.732 22.9839 61V37.5Z" fill="#FFBA4A"/>
<path d="M64 42H78.5161V61.1935C78.5161 63.955 76.2776 66.1935 73.5161 66.1935H69C66.2386 66.1935 64 63.955 64 61.1935V42Z" fill="#CA8CBB"/>
<path d="M38.7095 31.4517H53.2256V61.5323C53.2256 64.2937 50.987 66.5323 48.2256 66.5323H43.7095C40.948 66.5323 38.7095 64.2937 38.7095 61.5323V31.4517Z" fill="#A03C7D"/>
<circle cx="45.9677" cy="18.1454" r="16.9355" fill="#A03C7D"/>
<path d="M69.5567 13.4703V42.3386H75.6051V13.4703L77.4196 8.22158L75.6051 3.62891H69.5567L67.7422 8.22158L69.5567 13.4703Z" fill="#993280"/>
<path d="M45.9678 22.9839L39.9194 19.9597V1.20968V0.604839V0H51.4114V19.9597L45.9678 22.9839Z" fill="white"/>
<path fill-rule="evenodd" clip-rule="evenodd" d="M14.081 42.3389H0V56.4199H0.000102251V49.3797C3.87992 49.3797 7.02674 52.518 7.04055 56.3946C7.05434 52.5263 10.1877 49.3932 14.056 49.3797C10.1878 49.3663 7.0545 46.2333 7.04055 42.3652C7.02637 46.2415 3.87969 49.3794 0.000102251 49.3794V42.3389H7.0406V42.3393H14.081V42.3389Z" fill="#EB5555"/>
<path fill-rule="evenodd" clip-rule="evenodd" d="M82.2578 22.1206C90.4534 22.1202 97.0996 15.4864 97.1199 7.29547C97.1402 15.4866 103.787 22.1206 111.983 22.1206V7.25781H111.983V36.9834H111.983V22.1209C103.774 22.1209 97.12 28.7751 97.1198 36.9834H97.1195C97.1193 28.7754 90.4657 22.1215 82.2578 22.1209V22.1206Z" fill="#EB5555"/>
</svg>
